<?xml version="1.0" standalone="no"?>
<!DOCTYPE svg PUBLIC "-//W3C//DTD SVG 20010904//EN"
 "http://www.w3.org/TR/2001/REC-SVG-20010904/DTD/svg10.dtd">
<svg version="1.0" xmlns="http://www.w3.org/2000/svg"
 width="512.000000pt" height="512.000000pt" viewBox="0 0 512.000000 512.000000"
 preserveAspectRatio="xMidYMid meet">

<g transform="translate(0.000000,512.000000) scale(0.100000,-0.100000)"
fill="#000000" stroke="none">
<path d="M2350 4960 c-790 -72 -1484 -483 -1923 -1138 -88 -132 -218 -388
-272 -536 -51 -139 -110 -377 -131 -531 -20 -142 -26 -470 -11 -608 l9 -78 36
31 c62 53 184 129 234 147 43 15 49 21 59 58 26 104 94 221 166 286 37 33 41
42 52 115 75 486 326 933 696 1242 870 727 2159 599 2867 -284 218 -272 365
-607 419 -958 11 -73 15 -82 52 -115 72 -65 140 -182 166 -286 10 -37 16 -43
59 -58 50 -18 172 -94 234 -147 l36 -31 9 78 c15 138 9 466 -11 608 -21 154
-80 392 -131 531 -54 148 -184 404 -272 536 -409 611 -1042 1012 -1767 1119
-151 22 -438 32 -576 19z"/>
<path d="M902 2459 c-67 -11 -122 -40 -177 -91 -69 -63 -88 -112 -93 -245 l-5
-113 -39 0 c-160 0 -348 -115 -419 -257 l-34 -68 0 -375 0 -375 34 -68 c71
-142 259 -257 419 -257 l39 0 5 -113 c5 -133 24 -182 93 -245 56 -53 107 -78
185 -92 162 -29 331 49 391 182 l24 53 0 915 0 915 -24 53 c-60 133 -230 210
-399 181z"/>
<path d="M4069 2460 c-110 -19 -209 -91 -250 -183 l-24 -52 0 -915 0 -915 24
-53 c60 -133 229 -211 391 -182 78 14 129 39 185 92 69 63 88 112 93 245 l5
113 39 0 c160 0 348 115 419 257 l34 68 0 375 0 375 -34 68 c-71 142 -259 257
-419 257 l-39 0 -5 113 c-5 133 -24 182 -93 245 -57 54 -109 79 -186 92 -71
11 -74 11 -140 0z"/>
</g>
</svg>
